<?xml version="1.0" standalone="no"?>
<!DOCTYPE svg PUBLIC "-//W3C//DTD SVG 20010904//EN"
 "http://www.w3.org/TR/2001/REC-SVG-20010904/DTD/svg10.dtd">
<svg version="1.0" xmlns="http://www.w3.org/2000/svg"
 width="250.000000pt" height="80.000000pt" viewBox="0 0 250.000000 80.000000"
 preserveAspectRatio="xMidYMid meet">

<g transform="translate(0.000000,80.000000) scale(0.100000,-0.100000)"
fill="#000000" stroke="none">
<path d="M308 585 c-9 -44 -14 -83 -11 -87 12 -21 22 -2 28 55 11 102 1 121
-17 32z"/>
<path d="M515 593 c4 -76 19 -122 29 -93 3 8 -3 49 -14 90 l-19 75 4 -72z"/>
<path d="M910 474 c0 -113 1 -115 22 -112 20 3 21 8 19 86 -1 46 1 82 6 79 5
-3 24 -42 43 -86 30 -72 37 -81 60 -81 23 0 30 9 60 80 19 44 36 80 39 80 3 0
6 -35 6 -77 0 -73 1 -78 23 -81 22 -3 22 -2 22 112 l0 116 -38 0 -38 0 -34
-80 c-19 -44 -37 -80 -40 -80 -4 0 -21 36 -39 80 l-33 80 -39 0 -39 0 0 -116z"/>
<path d="M1290 475 l0 -115 105 0 c98 0 105 1 105 20 0 18 -7 20 -80 20 l-80
0 0 30 0 29 78 3 c60 2 77 6 77 18 0 12 -17 16 -77 18 -75 3 -78 4 -78 27 0
24 2 25 80 25 73 0 80 2 80 20 0 19 -7 20 -105 20 l-105 0 0 -115z"/>
<path d="M1570 570 c0 -17 7 -20 45 -20 l45 0 0 -95 c0 -95 0 -95 25 -95 25 0
25 0 25 95 l0 95 45 0 c38 0 45 3 45 20 0 19 -7 20 -115 20 -108 0 -115 -1
-115 -20z"/>
<path d="M1861 484 c-28 -58 -51 -110 -51 -115 0 -5 12 -9 26 -9 17 0 28 6 31
20 3 11 9 20 14 21 83 6 121 0 135 -20 14 -19 65 -31 63 -13 0 4 -24 54 -53
112 -48 97 -54 105 -83 108 -30 3 -32 1 -82 -104z m104 3 l15 -37 -40 0 -40 0
20 41 c12 23 23 39 25 37 3 -2 11 -21 20 -41z"/>
<path d="M2140 475 l0 -115 115 0 c108 0 115 1 115 20 0 17 -8 19 -87 22 l-88
3 -3 93 c-3 90 -3 92 -27 92 l-25 0 0 -115z"/>
<path d="M62 475 c15 -15 192 -115 203 -115 7 0 32 7 55 15 24 8 45 13 47 11
2 -2 -34 -58 -81 -124 -48 -66 -86 -123 -86 -127 0 -3 44 33 99 81 l99 87 -5
41 c-3 22 -9 44 -12 48 -9 10 -291 88 -317 88 -4 0 -5 -2 -2 -5z"/>
<path d="M715 468 c-143 -36 -250 -70 -257 -81 -4 -6 -8 -24 -9 -39 -1 -16 -2
-32 -3 -36 -1 -8 180 -172 190 -172 7 0 1 9 -88 134 -43 61 -76 111 -75 112 1
2 27 -4 57 -13 l55 -15 94 56 c51 30 96 58 99 61 8 7 -16 5 -63 -7z"/>
<path d="M910 245 c-18 -21 -8 -48 22 -59 19 -7 31 -6 43 4 8 7 13 15 10 18
-2 3 -11 0 -18 -7 -21 -17 -49 -3 -45 23 2 17 9 21 35 20 18 -1 30 2 27 7 -8
14 -60 10 -74 -6z"/>
<path d="M1039 255 c-10 -18 -9 -65 1 -65 6 0 10 7 10 15 0 9 9 15 25 15 16 0
25 -6 25 -15 0 -8 5 -15 10 -15 6 0 10 16 10 35 0 19 -4 35 -10 35 -5 0 -10
-7 -10 -15 0 -22 -48 -20 -52 3 -2 9 -6 13 -9 7z"/>
<path d="M1171 223 c1 -21 3 -30 6 -20 6 23 22 22 50 -5 13 -12 23 -16 23 -10
0 6 -5 14 -10 17 -8 5 -7 11 0 20 17 21 3 35 -36 35 -33 0 -34 -1 -33 -37z
m59 17 c0 -5 -11 -10 -25 -10 -14 0 -25 5 -25 10 0 6 11 10 25 10 14 0 25 -4
25 -10z"/>
<path d="M1300 239 c-20 -36 29 -71 70 -49 24 13 27 55 4 64 -31 12 -63 6 -74
-15z m75 -13 c0 -30 -31 -44 -51 -24 -24 24 -11 50 23 46 20 -2 28 -9 28 -22z"/>
<path d="M1441 223 c1 -35 2 -36 8 -10 l6 29 24 -26 c33 -35 41 -33 41 10 0
22 -4 33 -10 29 -6 -4 -8 -15 -5 -26 9 -26 -3 -24 -27 6 -27 35 -38 31 -37
-12z"/>
<path d="M1570 241 c-14 -27 -13 -28 15 -47 44 -29 105 15 69 50 -22 23 -71
20 -84 -3z m75 -15 c0 -30 -31 -44 -51 -24 -24 24 -11 50 23 46 20 -2 28 -9
28 -22z"/>
<path d="M1711 223 c1 -33 2 -35 8 -13 l7 25 12 -22 c7 -13 16 -23 21 -23 4 0
13 10 19 23 l11 22 0 -22 c1 -38 21 -26 21 12 0 41 -16 46 -32 10 -6 -14 -14
-25 -18 -25 -4 0 -12 11 -18 25 -17 37 -32 30 -31 -12z"/>
<path d="M1857 253 c-3 -5 -4 -21 -3 -38 1 -27 5 -30 39 -33 23 -2 37 1 37 8
0 7 -12 10 -27 8 -14 -2 -28 2 -30 9 -3 7 9 13 29 16 l33 4 -32 1 c-18 1 -33
6 -33 11 0 6 15 12 33 14 l32 4 -37 1 c-20 1 -39 -1 -41 -5z"/>
<path d="M1983 253 c11 -3 17 -14 17 -34 0 -16 5 -29 10 -29 6 0 10 13 10 29
0 20 6 31 18 34 9 3 -3 5 -28 5 -25 0 -37 -2 -27 -5z"/>
<path d="M2090 225 c0 -19 5 -35 10 -35 6 0 10 7 10 15 0 21 20 19 47 -7 13
-12 23 -16 23 -10 0 6 -5 14 -10 17 -8 5 -7 11 0 20 18 22 2 35 -41 35 -38 0
-39 -1 -39 -35z m70 15 c0 -5 -11 -10 -25 -10 -14 0 -25 5 -25 10 0 6 11 10
25 10 14 0 25 -4 25 -10z"/>
<path d="M2233 225 c0 -22 2 -30 4 -17 2 12 2 30 0 40 -3 9 -5 -1 -4 -23z"/>
<path d="M2292 223 c3 -35 6 -38 36 -41 19 -2 32 1 32 8 0 8 -9 10 -25 6 -18
-5 -25 -2 -25 8 0 8 12 16 28 19 l27 4 -27 2 c-39 2 -35 19 5 24 27 3 26 4
-11 5 l-43 2 3 -37z"/>
</g>
</svg>
